<svg width="260" height="125" viewBox="0 0 260 125" fill="none" xmlns="http://www.w3.org/2000/svg">
<mask id="mask0_2043_76" style="mask-type:luminance" maskUnits="userSpaceOnUse" x="0" y="0" width="71" height="51">
<path d="M0 0H70.6667V50.6667H0V0Z" fill="white"/>
</mask>
<g mask="url(#mask0_2043_76)">
<mask id="mask1_2043_76" style="mask-type:luminance" maskUnits="userSpaceOnUse" x="-11" y="-10" width="100" height="76">
<path d="M-10.8389 37.172L73.0466 -9.51025L88.6091 18.4533L4.72363 65.1356L-10.8389 37.172Z" fill="white"/>
</mask>
<g mask="url(#mask1_2043_76)">
<mask id="mask2_2043_76" style="mask-type:luminance" maskUnits="userSpaceOnUse" x="-11" y="-10" width="137" height="141">
<path d="M-10.8389 37.172L73.0466 -9.51025L125.078 83.9897L41.1924 130.672L-10.8389 37.172Z" fill="white"/>
</mask>
<g mask="url(#mask2_2043_76)">
<path d="M65.505 1.9118C61.7966 -0.306951 56.781 -0.0725769 52.0935 2.53159C41.4268 8.46909 39.281 22.4118 38.9841 30.6253C31.8487 26.5576 18.906 21.0837 8.26017 27.0055C1.50496 30.766 -1.13046 37.5524 1.93725 43.0681C7.37475 52.8389 21.9633 53.0785 44.1508 40.7295C66.3435 28.3805 73.5362 13.641 69.156 5.76597C68.281 4.20347 67.0883 2.85972 65.505 1.9118ZM16.432 41.9691C11.6352 42.1306 9.10913 40.7139 8.3435 39.3389C7.36433 37.5785 8.82787 35.0941 11.8279 33.4222C19.0518 29.4066 28.7602 33.4014 34.6456 36.6722C26.0258 40.766 20.0935 41.8493 16.432 41.9691ZM62.9737 11.0837C62.9008 15.3858 58.4216 22.3962 46.4633 30.0941C46.8123 23.3545 48.5623 12.9847 55.6977 9.01597C58.4633 7.4743 60.6091 7.62534 61.6977 8.27638C62.5623 8.79201 62.9893 9.73993 62.9737 11.0837Z" fill="#FF637E"/>
</g>
</g>
</g>
<path d="M45.0163 87.4896C39.5944 85.0521 35.2402 81.6823 31.9486 77.375C28.5475 72.9271 26.8496 67.6615 26.8496 61.5677C26.8496 55.8229 28.3184 50.7813 31.2611 46.4479C34.1673 42.1667 38.1882 38.8385 43.3184 36.4583C48.3444 34.125 54.1673 32.9583 60.7923 32.9583C62.9329 32.9583 65.1725 33.1875 67.5111 33.6406C69.4486 34.0208 70.9329 34.2083 71.9538 34.2083C73.7559 34.2083 75.2038 33.9844 76.2923 33.5313C77.4277 33.0625 78.334 32.5156 79.0111 31.901C79.7923 31.1875 80.4382 30.474 80.9486 29.7604C81.6882 28.7344 82.4225 27.8594 83.1517 27.1302C84.3757 25.9062 85.834 25.2969 87.5267 25.2969C89.5007 25.2969 91.2923 26.1042 92.9017 27.7135C94.1777 28.9844 95.1986 30.5 95.9642 32.2448C96.7559 34.0313 97.1465 35.7292 97.1465 37.3333C97.1465 38.474 96.8444 39.5156 96.2298 40.4635C95.6934 41.3021 94.9382 42.0104 93.9642 42.5938C92.36 43.5573 90.5475 44.0365 88.5267 44.0365C86.6882 44.0365 85.1829 43.9375 84.0163 43.7448C82.8548 43.5521 81.8236 43.3021 80.9173 43C80.235 42.776 79.5007 42.5573 78.709 42.3542C78.0632 42.1875 77.1569 42.0833 75.9902 42.0365L76.1152 38.9167L77.2975 36.026C82.7611 38.2604 87.0111 41.5885 90.0579 46.0156C93.1204 50.4635 94.6465 55.6458 94.6465 61.5677C94.6465 66.5417 93.5527 71.0469 91.3548 75.0938C89.1517 79.151 86.0371 82.4635 81.9954 85.026C78.0111 87.5625 73.334 89.1354 67.9746 89.7448C68.3288 89.6979 68.6569 89.5104 68.9538 89.1719C69.2611 88.8333 69.4121 88.4844 69.4121 88.1406C69.4121 87.8385 69.3184 87.5729 69.1361 87.349C69.1152 87.3229 69.0944 87.3021 69.0736 87.2813C69.1309 87.3229 69.2142 87.3698 69.3236 87.4167C70.2975 87.8594 71.5996 88.2656 73.2246 88.6354C75.11 89.0625 77.1152 89.5729 79.2507 90.1719C81.5527 90.8177 83.735 91.6927 85.7975 92.8021C88.0944 94.0365 89.9694 95.6875 91.4173 97.7604C92.959 99.9635 93.7298 102.724 93.7298 106.047C93.7298 110.422 92.2246 114.083 89.209 117.026C86.459 119.714 82.8652 121.729 78.4382 123.073C74.1986 124.354 69.5684 124.995 64.5371 124.995C60.5475 124.995 56.459 124.557 52.2767 123.677C48.0579 122.792 44.1413 121.479 40.5267 119.729C36.7663 117.911 33.709 115.682 31.3496 113.042C28.7402 110.115 27.4329 106.755 27.4329 102.964C27.4329 101.839 27.86 100.698 28.709 99.5417C29.2923 98.7448 30.1204 97.8906 31.1882 96.974C33.1465 95.2917 35.5059 93.7292 38.2715 92.2813C39.9746 91.4063 41.709 90.599 43.4902 89.8698C45.5632 89.0208 47.61 88.599 49.6309 88.599C51.209 88.599 52.7038 89.1198 54.1152 90.1719C55.8184 91.4323 56.6673 93.2292 56.6673 95.5521C56.6673 96.8021 56.4798 97.9479 56.11 98.9844C55.9017 99.5625 55.6882 100.333 55.4642 101.292C55.2663 102.146 55.1673 103.563 55.1673 105.547C55.1673 107.729 55.7402 109.5 56.8913 110.865C57.9069 112.068 59.4017 112.667 61.3757 112.667C63.5267 112.667 65.1777 112.156 66.3392 111.125C67.3861 110.193 67.9121 108.635 67.9121 106.464C67.9121 103.792 67.4486 101.641 66.5267 100.005C65.584 98.3385 64.2142 96.9219 62.4225 95.7552C60.3444 94.4063 57.8861 93.1146 55.0475 91.8802L45.0475 87.5052L45.0163 87.4896ZM47.5527 81.7813L57.5371 86.151C60.6986 87.526 63.459 88.9792 65.8236 90.5156C68.4746 92.2396 70.5163 94.375 71.9642 96.9271C73.4277 99.5156 74.1569 102.693 74.1569 106.464C74.1569 110.505 72.9329 113.62 70.485 115.792C68.1465 117.875 65.11 118.917 61.3757 118.917C57.4642 118.917 54.3757 117.573 52.1152 114.891C49.985 112.365 48.9225 109.25 48.9225 105.547C48.9225 103.089 49.0736 101.203 49.3757 99.8906C49.6569 98.6875 49.9382 97.6771 50.2298 96.8698C50.36 96.5156 50.4225 96.0781 50.4225 95.5521C50.4225 95.3594 50.4069 95.2292 50.3704 95.1563C50.3809 95.1719 50.3861 95.1823 50.3913 95.1875C50.084 94.9583 49.8288 94.8438 49.6309 94.8438C48.4277 94.8438 47.1725 95.1146 45.86 95.651C44.2507 96.3125 42.6829 97.0365 41.1621 97.8229C38.8236 99.0417 36.8548 100.339 35.2559 101.708C34.5475 102.318 34.0423 102.828 33.7402 103.245C33.6621 103.349 33.6152 103.422 33.5996 103.458C33.6517 103.328 33.6777 103.167 33.6777 102.964C33.6777 105.167 34.459 107.141 36.0111 108.88C37.8184 110.906 40.2298 112.646 43.2454 114.104C46.4017 115.63 49.8392 116.786 53.5632 117.568C57.3184 118.354 60.9798 118.75 64.5371 118.75C68.9486 118.75 72.9798 118.198 76.6257 117.094C80.084 116.047 82.8236 114.536 84.8444 112.557C86.6048 110.839 87.485 108.667 87.485 106.047C87.485 104.036 87.0892 102.469 86.3027 101.344C85.4173 100.083 84.2663 99.0677 82.8444 98.3021C81.1829 97.4115 79.4277 96.7083 77.5632 96.1875C75.5319 95.6146 73.6257 95.1302 71.8444 94.724C69.8027 94.2604 68.1048 93.724 66.7507 93.1094C65.7246 92.6458 64.9121 92.0521 64.3132 91.3229C63.5475 90.3906 63.1621 89.3281 63.1621 88.1406C63.1621 86.901 63.5371 85.8646 64.2871 85.0208C65.0319 84.1875 66.0215 83.6927 67.2663 83.5365C71.6777 83.0365 75.4694 81.776 78.6465 79.7552C81.7715 77.7708 84.1777 75.224 85.8652 72.1146C87.5579 69 88.4017 65.4844 88.4017 61.5677C88.4017 56.9427 87.2402 52.9375 84.9121 49.5573C82.5736 46.151 79.2454 43.5677 74.9329 41.8073L76.2402 35.7917C77.8496 35.8594 79.1934 36.0313 80.2715 36.3073C81.1986 36.5469 82.0736 36.8021 82.8913 37.0781C83.485 37.276 84.2038 37.4427 85.0423 37.5833C85.8704 37.724 87.0319 37.7917 88.5267 37.7917C89.3913 37.7917 90.1361 37.6042 90.7507 37.2344C90.8496 37.1771 90.9225 37.125 90.9746 37.0781H90.985C90.9277 37.1615 90.9017 37.2448 90.9017 37.3333C90.9017 36.6042 90.6829 35.7448 90.2507 34.7604C89.7975 33.7292 89.209 32.849 88.485 32.1302C88.0944 31.7396 87.7767 31.5417 87.5267 31.5417C87.5319 31.5417 87.5475 31.5365 87.5788 31.526L87.5684 31.5469C87.0788 32.0365 86.5632 32.6563 86.0215 33.4063C85.2559 34.474 84.3236 35.5104 83.2194 36.5156C82.0059 37.625 80.4954 38.5521 78.6882 39.3021C76.834 40.0729 74.5892 40.4583 71.9538 40.4583C70.5267 40.4583 68.6517 40.2292 66.3132 39.776C64.3757 39.3958 62.5319 39.2083 60.7923 39.2083C55.0892 39.2083 50.1413 40.1771 45.9486 42.125C41.86 44.0208 38.6882 46.6302 36.4329 49.9583C34.209 53.2292 33.0944 57.099 33.0944 61.5677C33.0944 66.25 34.3704 70.2552 36.9121 73.5833C39.5632 77.0521 43.1152 79.7865 47.5788 81.7917L47.5527 81.7813ZM60.7923 43.1198C60.0788 43.1198 59.3548 43.6302 58.6204 44.6563C57.5111 46.1927 56.6309 48.4688 55.9694 51.4896C55.2715 54.7135 54.9173 58.5156 54.9173 62.901C54.9173 67.2292 55.2715 71.0104 55.9694 74.2292C56.6309 77.25 57.5111 79.5313 58.6204 81.0677C59.3548 82.0885 60.0788 82.599 60.7923 82.599C61.4902 82.599 62.1934 82.099 62.9017 81.0885C63.9902 79.5469 64.8652 77.2604 65.5267 74.2292C66.2298 71.0104 66.5788 67.2292 66.5788 62.901C66.5788 58.5156 66.2298 54.7135 65.5267 51.4896C64.8652 48.4583 63.9902 46.1719 62.9017 44.6302C62.1934 43.625 61.4902 43.1198 60.7923 43.1198ZM60.7923 36.875C63.6465 36.875 66.0527 38.2604 68.0059 41.026C69.584 43.2604 70.7923 46.3073 71.6309 50.1615C72.4277 53.8229 72.8288 58.0677 72.8288 62.901C72.8288 67.6823 72.4277 71.901 71.6309 75.5625C70.7923 79.4167 69.584 82.4583 68.0059 84.6927C66.0527 87.4635 63.6465 88.849 60.7923 88.849C57.9486 88.849 55.5371 87.4688 53.5527 84.7188C51.9382 82.4792 50.709 79.4271 49.8704 75.5625C49.0684 71.901 48.6725 67.6823 48.6725 62.901C48.6725 58.0677 49.0684 53.8229 49.8704 50.1615C50.709 46.2969 51.9382 43.2448 53.5527 41.0052C55.5371 38.25 57.9486 36.875 60.7923 36.875Z" fill="#FFECF2"/>
<path d="M90.8919 46.2451C90.8919 45.5316 91.0378 44.8857 91.3294 44.3076C91.7513 43.4587 92.3971 42.8597 93.2721 42.5107C93.3294 42.4899 93.3659 42.4743 93.3711 42.4743C93.1523 42.5837 92.9336 42.7399 92.7253 42.9535L93.0898 42.5889L96.6732 40.818C98.1055 40.1201 99.7305 39.3337 101.543 38.4691C103.397 37.5837 105.298 36.7451 107.236 35.943C109.194 35.1357 111.017 34.4587 112.699 33.9066C114.626 33.2764 116.257 32.9587 117.59 32.9587C118.658 32.9587 119.579 33.141 120.355 33.4951C121.533 34.042 122.319 34.9066 122.715 36.0941C123.048 37.0837 123.21 38.1618 123.21 39.3337V85.8076C123.21 87.917 123.382 89.5993 123.725 90.8597C123.996 91.8493 124.491 92.7087 125.21 93.4274L130.543 98.7607H87.5586L92.8919 93.4274C93.6107 92.7087 94.1055 91.8493 94.3763 90.8597C94.7201 89.5993 94.8919 87.917 94.8919 85.8076V53.8232C94.8919 53.5212 94.8763 52.943 94.8503 52.0889C94.8346 51.5628 94.7148 51.0107 94.4857 50.4274C94.4857 50.4378 94.5013 50.4535 94.5221 50.4691C94.4961 50.4482 94.4336 50.4222 94.3242 50.391L94.0898 50.3128L93.8711 50.2035C93.918 50.2295 93.9648 50.2503 94.0013 50.266C93.9961 50.2607 93.9857 50.2607 93.9648 50.2503C93.8867 50.2243 93.7773 50.1878 93.6419 50.1462C92.6888 49.8545 91.9648 49.2816 91.4648 48.4378C91.0846 47.7972 90.8919 47.0628 90.8919 46.2451ZM97.1419 46.2451C97.1419 45.9274 97.043 45.5993 96.8398 45.2607C96.5221 44.7191 96.069 44.3597 95.4753 44.1774C96.0013 44.3389 96.3971 44.4847 96.6628 44.6149L95.2669 47.4118L96.2044 44.4326C98.2096 45.0628 99.569 46.3024 100.298 48.141C100.788 49.391 101.059 50.6462 101.095 51.8962C101.126 52.8128 101.137 53.4587 101.137 53.8232V85.8076C101.137 88.4743 100.892 90.7035 100.402 92.5003C99.8398 94.5628 98.8086 96.3441 97.3086 97.8441L95.1003 95.6357V92.5107H123.001V95.6357L120.793 97.8441C119.293 96.3441 118.262 94.5628 117.699 92.5003C117.21 90.7035 116.965 88.4743 116.965 85.8076V39.3337C116.965 38.8389 116.908 38.417 116.793 38.068C116.965 38.5941 117.277 38.9587 117.736 39.167C117.803 39.2035 117.855 39.2191 117.882 39.2243C117.814 39.2139 117.715 39.2087 117.59 39.2087C116.923 39.2087 115.939 39.417 114.647 39.8441C113.111 40.3441 111.434 40.9743 109.616 41.7191C107.777 42.4743 105.986 43.2712 104.23 44.1097C102.439 44.9639 100.84 45.7347 99.4388 46.4222L96.3138 47.9639L94.9336 45.1618L97.1419 47.3701C96.7826 47.7295 96.2669 48.042 95.5951 48.3128C96.1888 48.0732 96.6315 47.667 96.9128 47.0993C97.0638 46.7972 97.1419 46.516 97.1419 46.2451ZM108.845 4.30762C113.371 4.30762 117.048 5.72428 119.882 8.55241C122.71 11.3857 124.126 15.0628 124.126 19.5941C124.126 24.1201 122.71 27.7972 119.882 30.6305C117.048 33.4587 113.371 34.8753 108.845 34.8753C104.314 34.8753 100.637 33.4587 97.8034 30.6305C94.9753 27.7972 93.5586 24.1201 93.5586 19.5941C93.5586 15.0628 94.9753 11.3857 97.8034 8.55241C100.637 5.72428 104.314 4.30762 108.845 4.30762ZM108.845 10.5576C106.038 10.5576 103.835 11.3597 102.22 12.9743C100.611 14.5837 99.8034 16.792 99.8034 19.5941C99.8034 22.3962 100.611 24.5993 102.22 26.2139C103.835 27.8232 106.038 28.6305 108.845 28.6305C111.647 28.6305 113.85 27.8232 115.465 26.2139C117.074 24.5993 117.882 22.3962 117.882 19.5941C117.882 16.792 117.074 14.5837 115.465 12.9743C113.85 11.3597 111.647 10.5576 108.845 10.5576Z" fill="#FFECF2"/>
<path d="M152.15 98.7606H116.707L122.04 93.4272C122.759 92.7085 123.254 91.8491 123.525 90.8595C123.868 89.5991 124.04 87.9168 124.04 85.8075V36.4168C124.04 32.797 124.509 29.3283 125.452 26.0262C126.426 22.6043 127.967 19.5522 130.082 16.8647C132.249 14.1147 135.061 11.9429 138.509 10.3439C141.926 8.76579 145.999 7.97412 150.733 7.97412C152.54 7.97412 154.426 8.15641 156.389 8.5262C158.327 8.89079 160.155 9.37516 161.863 9.98975C163.743 10.6616 165.311 11.495 166.556 12.4897C168.306 13.8908 169.181 15.5106 169.181 17.3439C169.181 19.172 168.796 21.0991 168.02 23.1252C167.342 24.8856 166.624 26.5314 165.853 28.0679C165.212 29.4116 164.655 30.5887 164.191 31.5991C163.738 32.5887 163.129 33.37 162.374 33.9429C161.473 34.62 160.457 34.9585 159.311 34.9585C157.342 34.9585 155.311 34.2502 153.228 32.8387C151.608 31.7397 149.879 30.4533 148.04 28.9897C146.4 27.6825 144.702 26.547 142.941 25.5783C141.493 24.7814 139.983 24.3804 138.41 24.3804C138.134 24.3804 137.827 24.5054 137.483 24.7502L137.473 24.7554C137.483 24.745 137.488 24.7345 137.493 24.7293C137.462 24.7866 137.452 24.9116 137.452 25.0887C137.452 26.3908 137.837 27.7554 138.613 29.1772C139.405 30.6304 140.514 31.8595 141.941 32.8543C143.238 33.7554 144.728 34.2085 146.405 34.2085H160.27V44.62H149.233V41.495H152.358V85.8075C152.358 87.9168 152.53 89.5991 152.874 90.8595C153.145 91.8491 153.639 92.7085 154.358 93.4272L159.691 98.7606H152.15ZM152.15 92.5106V95.6356L149.941 97.8439C148.441 96.3439 147.41 94.5627 146.848 92.5002C146.358 90.7033 146.113 88.4741 146.113 85.8075V38.3752H157.15V41.495H154.025V37.3335H157.15V40.4585H146.405C143.415 40.4585 140.738 39.6304 138.368 37.9793C136.134 36.422 134.384 34.4845 133.124 32.1616C131.842 29.8075 131.202 27.4533 131.202 25.0887C131.202 22.745 132.082 20.9429 133.837 19.6772C135.27 18.6512 136.79 18.1356 138.41 18.1356C141.051 18.1356 143.566 18.7918 145.952 20.1043C148.025 21.245 150.014 22.5783 151.931 24.1043C153.645 25.4689 155.249 26.6564 156.738 27.6668C157.759 28.3647 158.618 28.7137 159.311 28.7137C159.061 28.7137 158.827 28.7918 158.608 28.9585C158.54 29.0054 158.493 29.0522 158.457 29.0991C158.473 29.0835 158.488 29.047 158.514 28.9897C158.993 27.9481 159.577 26.7085 160.27 25.2762C160.947 23.922 161.582 22.4585 162.186 20.8908C162.686 19.5835 162.936 18.4012 162.936 17.3439C162.936 17.5054 162.962 17.6356 163.02 17.7293C162.973 17.646 162.848 17.521 162.65 17.3647C161.952 16.8075 160.988 16.3075 159.764 15.87C158.363 15.37 156.853 14.9689 155.238 14.6668C153.655 14.37 152.15 14.2189 150.733 14.2189C146.915 14.2189 143.717 14.8179 141.134 16.0106C138.587 17.1929 136.54 18.7658 134.988 20.7345C133.384 22.771 132.207 25.1043 131.457 27.7345C130.676 30.4793 130.285 33.3752 130.285 36.4168V85.8075C130.285 88.4741 130.04 90.7033 129.551 92.5002C128.988 94.5627 127.957 96.3439 126.457 97.8439L124.249 95.6356V92.5106H152.15Z" fill="#FFECF2"/>
<path d="M46.3079 84.6356C41.36 82.4168 37.4017 79.3647 34.4329 75.4897C31.459 71.6043 29.9746 66.9637 29.9746 61.5731C29.9746 56.4637 31.2663 52.0054 33.8496 48.1981C36.4329 44.396 40.0215 41.422 44.6204 39.2814C49.2298 37.146 54.6204 36.0731 60.7871 36.0731C62.7298 36.0731 64.7715 36.2814 66.9121 36.6981C69.0475 37.1147 70.7298 37.3231 71.9538 37.3231C74.1725 37.3231 76.0215 37.021 77.4954 36.4064C78.9642 35.797 80.1725 35.0679 81.1204 34.2189C82.0632 33.3595 82.8548 32.4845 83.4954 31.5939C84.1309 30.7085 84.7559 29.9585 85.3704 29.3439C85.9798 28.7345 86.7038 28.4272 87.5371 28.4272C88.6465 28.4272 89.6934 28.9272 90.6829 29.9272C91.683 30.9272 92.485 32.1252 93.0996 33.5106C93.709 34.8856 94.0163 36.1564 94.0163 37.3231C94.0163 38.3804 93.459 39.2397 92.3496 39.9064C91.235 40.5731 89.9642 40.9064 88.5371 40.9064C86.8704 40.9064 85.5371 40.8231 84.5371 40.6564C83.5371 40.4897 82.6621 40.2814 81.9121 40.0314C81.1621 39.7814 80.3548 39.547 79.4954 39.3231C78.6309 39.1043 77.5059 38.9637 76.1204 38.9064C81.0059 40.9064 84.7923 43.8647 87.4746 47.7814C90.1673 51.6981 91.5163 56.297 91.5163 61.5731C91.5163 66.021 90.5423 70.0314 88.5996 73.6147C86.6673 77.1877 83.9121 80.1095 80.3288 82.3856C76.7454 84.6668 72.5059 86.0835 67.6204 86.6356C66.7298 86.7502 66.2871 87.2502 66.2871 88.1356C66.2871 89.0262 66.8704 89.7345 68.0371 90.2606C69.2038 90.7918 70.7038 91.2606 72.5371 91.6772C74.3704 92.0939 76.3288 92.5939 78.4121 93.1772C80.4954 93.7606 82.4642 94.5522 84.3288 95.5522C86.1882 96.5522 87.6934 97.8856 88.8496 99.5522C90.0163 101.219 90.5996 103.386 90.5996 106.052C90.5996 109.552 89.4017 112.458 87.0163 114.781C84.6413 117.115 81.4798 118.875 77.5371 120.073C73.5892 121.266 69.2559 121.865 64.5371 121.865C60.7559 121.865 56.8809 121.448 52.9121 120.615C48.9538 119.781 45.2767 118.542 41.8913 116.906C38.5007 115.281 35.7663 113.302 33.6829 110.969C31.5996 108.636 30.5579 105.969 30.5579 102.969C30.5579 102.078 31.4434 100.87 33.2246 99.3439C35.0007 97.8127 37.1673 96.3856 39.7246 95.0522C41.334 94.2189 42.985 93.4585 44.6829 92.7606C46.3757 92.0679 48.0215 91.7189 49.6204 91.7189C50.5059 91.7189 51.3809 92.0418 52.2454 92.6772C53.1048 93.3179 53.5371 94.2762 53.5371 95.5522C53.5371 96.4377 53.4121 97.2293 53.1621 97.9272C52.9121 98.62 52.6621 99.5106 52.4121 100.594C52.1621 101.677 52.0371 103.328 52.0371 105.552C52.0371 108.495 52.8548 110.938 54.4954 112.886C56.1309 114.828 58.4225 115.802 61.3704 115.802C64.3132 115.802 66.6621 115.021 68.4121 113.469C70.1621 111.912 71.0371 109.578 71.0371 106.469C71.0371 103.245 70.4382 100.578 69.2454 98.4689C68.0475 96.3543 66.3392 94.5835 64.1204 93.1356C61.8965 91.6929 59.2871 90.3179 56.2871 89.0106C53.2871 87.7085 49.959 86.2502 46.3079 84.6356ZM60.7871 39.9897C59.0059 39.9897 57.4382 40.9377 56.0788 42.8231C54.7142 44.7137 53.6621 47.3804 52.9121 50.8231C52.1621 54.271 51.7871 58.297 51.7871 62.9064C51.7871 67.4637 52.1621 71.4637 52.9121 74.9064C53.6621 78.3387 54.7142 81.0002 56.0788 82.8856C57.4382 84.7762 59.0059 85.7189 60.7871 85.7189C62.5632 85.7189 64.1204 84.7762 65.4538 82.8856C66.7871 81.0002 67.8288 78.3387 68.5788 74.9064C69.3288 71.4637 69.7038 67.4637 69.7038 62.9064C69.7038 58.297 69.3288 54.271 68.5788 50.8231C67.8288 47.3804 66.7871 44.7137 65.4538 42.8231C64.1204 40.9377 62.5632 39.9897 60.7871 39.9897Z" fill="#FF637E"/>
<path d="M94.0166 46.2397C94.0166 45.797 94.152 45.521 94.4333 45.4064C94.7093 45.297 94.876 45.2137 94.9333 45.1564C95.5999 44.8231 96.6416 44.3127 98.0583 43.6147C99.4749 42.922 101.084 42.146 102.892 41.2814C104.694 40.422 106.543 39.6043 108.433 38.8231C110.319 38.047 112.063 37.396 113.662 36.8647C115.272 36.3387 116.579 36.0731 117.579 36.0731C118.798 36.0731 119.522 36.4064 119.746 37.0731C119.965 37.7397 120.079 38.4897 120.079 39.3231V85.8022C120.079 88.1929 120.287 90.1512 120.704 91.6772C121.121 93.2085 121.881 94.5262 122.996 95.6356H95.0999C96.2093 94.5262 96.9749 93.2085 97.3916 91.6772C97.8083 90.1512 98.0166 88.1929 98.0166 85.8022V53.8231C98.0166 53.4897 98.001 52.8804 97.9749 51.9897C97.9437 51.1043 97.751 50.1981 97.3916 49.2814C97.027 48.3647 96.3187 47.7397 95.2666 47.4064C95.152 47.3543 94.9176 47.271 94.5583 47.1564C94.1937 47.047 94.0166 46.7397 94.0166 46.2397ZM108.85 7.42725C112.517 7.42725 115.454 8.54183 117.662 10.7606C119.881 12.9845 120.996 15.9272 120.996 19.5939C120.996 23.2606 119.881 26.2085 117.662 28.4272C115.454 30.6512 112.517 31.7606 108.85 31.7606C105.183 31.7606 102.235 30.6512 100.017 28.4272C97.7926 26.2085 96.6833 23.2606 96.6833 19.5939C96.6833 15.9272 97.7926 12.9845 100.017 10.7606C102.235 8.54183 105.183 7.42725 108.85 7.42725Z" fill="#FF637E"/>
<path d="M152.145 95.6354H124.249C125.358 94.526 126.124 93.2083 126.541 91.6771C126.957 90.151 127.166 88.1927 127.166 85.8021V36.4063C127.166 33.0885 127.593 29.9167 128.457 26.8854C129.317 23.8594 130.676 21.1667 132.541 18.8021C134.4 16.4427 136.822 14.5677 139.812 13.1771C142.812 11.7917 146.447 11.0938 150.728 11.0938C152.338 11.0938 154.03 11.2604 155.812 11.5938C157.588 11.9271 159.254 12.375 160.812 12.9271C162.364 13.4844 163.629 14.151 164.603 14.9271C165.572 15.7083 166.062 16.5104 166.062 17.3438C166.062 18.7917 165.739 20.3438 165.103 22.0104C164.463 23.6771 163.78 25.2344 163.062 26.6771C162.395 28.0677 161.822 29.276 161.353 30.3021C160.879 31.3333 160.197 31.8438 159.312 31.8438C157.978 31.8438 156.53 31.3177 154.978 30.2604C153.421 29.2083 151.754 27.9688 149.978 26.5521C148.197 25.1354 146.353 23.901 144.437 22.8438C142.53 21.7917 140.525 21.2604 138.416 21.2604C137.468 21.2604 136.551 21.5833 135.666 22.2188C134.775 22.8594 134.332 23.8177 134.332 25.0938C134.332 26.9271 134.843 28.7917 135.874 30.6771C136.9 32.5521 138.332 34.1302 140.166 35.4063C141.999 36.6875 144.072 37.3229 146.395 37.3229H157.145V41.4896H149.228V85.8021C149.228 88.1927 149.437 90.151 149.853 91.6771C150.27 93.2083 151.03 94.526 152.145 95.6354Z" fill="#FF637E"/>
<path d="M158.486 33.8145C159.601 33.8145 160.95 33.3665 162.523 32.4707C164.419 31.3978 166.351 30.0436 168.32 28.4082C170.393 26.6947 172.356 24.9915 174.205 23.2988C176.137 21.5384 177.851 20.054 179.346 18.8509C180.21 18.153 180.981 17.6113 181.669 17.2311C182.669 16.679 183.601 16.4082 184.471 16.4082C186.007 16.4082 187.221 16.9655 188.106 18.0905C188.82 18.9915 189.179 20.1374 189.179 21.528V36.9342H186.054V33.8145H196.34V44.2259H186.054V41.1009H189.179V74.7467C189.179 76.8874 189.205 79.028 189.257 81.1634C189.309 83.028 189.564 84.679 190.028 86.1165C190.356 87.1374 190.934 87.9186 191.762 88.4603C191.585 88.3405 191.361 88.2832 191.09 88.2832C191.747 88.2832 192.408 88.377 193.075 88.5697L195.611 89.2936L195.32 91.9186C195.111 93.7936 194.174 95.377 192.502 96.6686C191.215 97.6582 189.721 98.403 188.012 98.903C186.393 99.3717 184.768 99.6113 183.137 99.6113C178.606 99.6113 174.898 98.8145 172.012 97.2207C169.07 95.6009 166.83 93.403 165.294 90.6322C163.861 88.054 162.908 85.1895 162.434 82.0384C161.997 79.1113 161.778 76.153 161.778 73.1634V46.429C161.778 45.6999 161.742 44.9707 161.669 44.2415C161.658 44.1634 161.648 44.1061 161.632 44.0749C161.637 44.0853 161.643 44.0957 161.648 44.1009C161.731 44.1842 161.814 44.2467 161.898 44.2884L161.913 44.304C161.726 44.252 161.445 44.2259 161.07 44.2259H155.361V33.8145H158.486ZM158.486 40.0592V36.9342H161.611V41.1009H158.486V37.9759H161.07C163.262 37.9759 164.929 38.5436 166.064 39.6842C167.122 40.7363 167.726 42.0488 167.882 43.6217C167.976 44.5592 168.023 45.4915 168.023 46.429V73.1634C168.023 75.8405 168.221 78.4915 168.611 81.1165C168.976 83.5176 169.684 85.679 170.752 87.5957C171.71 89.3249 173.137 90.7103 175.028 91.752C176.976 92.8249 179.679 93.3613 183.137 93.3613C184.174 93.3613 185.215 93.2103 186.262 92.903C187.215 92.627 188.023 92.2311 188.684 91.7207C188.955 91.5124 189.101 91.3457 189.111 91.2259L192.215 91.5697L191.361 94.5749C191.252 94.5436 191.163 94.528 191.09 94.528C190.101 94.528 189.184 94.2467 188.34 93.6842C186.283 92.3405 184.861 90.4551 184.08 88.0332C183.434 86.028 183.08 83.7884 183.012 81.3249C182.96 79.1322 182.929 76.9395 182.929 74.7467V37.9759H193.215V41.1009H190.096V36.9342H193.215V40.0592H182.929V21.528C182.929 21.4811 182.929 21.4395 182.924 21.4082C182.924 21.4134 182.929 21.429 182.934 21.4499C182.981 21.6217 183.07 21.7936 183.21 21.9655C183.408 22.2207 183.658 22.4082 183.95 22.5332C184.143 22.6113 184.314 22.653 184.471 22.653C184.648 22.653 184.794 22.6322 184.903 22.5957C184.861 22.6113 184.794 22.6426 184.689 22.6999C184.325 22.903 183.851 23.2415 183.268 23.7103C181.872 24.8353 180.257 26.2363 178.413 27.9186C176.492 29.6738 174.455 31.4395 172.304 33.2207C170.054 35.0853 167.825 36.6478 165.606 37.903C163.075 39.3405 160.7 40.0592 158.486 40.0592Z" fill="#FFECF2"/>
<path d="M198.131 54.4759C197.136 51.1113 196.157 47.8926 195.194 44.8301C194.397 42.304 193.329 40.4551 191.991 39.2884L185.735 33.8145H227.933L226.069 38.1686C225.313 39.9238 225.131 41.903 225.522 44.0905C226.006 46.8145 226.657 49.7155 227.47 52.7988C228.246 55.6895 229.053 58.778 229.892 62.0697C230.715 65.3197 231.569 68.5176 232.454 71.653C233.324 74.7572 234.204 77.5801 235.1 80.127C235.954 82.5697 236.772 84.4915 237.548 85.8926C237.813 86.377 238.037 86.6947 238.209 86.8561C238.183 86.8301 238.126 86.7988 238.043 86.7572C237.834 86.6634 237.605 86.6165 237.355 86.6165C237.136 86.6165 236.938 86.6582 236.756 86.7415C236.709 86.7676 236.668 86.7884 236.636 86.8145L236.647 86.7988C236.871 86.5853 237.131 86.1738 237.428 85.5697C238.225 83.9551 238.886 81.8197 239.418 79.1738C239.959 76.4603 240.23 73.653 240.23 70.752C240.23 66.8717 239.787 63.8301 238.912 61.6165C238.048 59.4551 237.032 57.8092 235.855 56.6738C234.569 55.4342 233.319 54.4967 232.11 53.8561C230.626 53.0749 229.371 52.403 228.334 51.8457C227.412 51.3457 226.683 50.7363 226.152 50.0176C225.485 49.1165 225.157 48.1165 225.157 47.0124C225.157 44.8978 225.996 42.8822 227.678 40.9603C229.074 39.3613 230.897 37.9238 233.142 36.6374C235.293 35.4082 237.61 34.429 240.095 33.6895C242.631 32.9395 245.131 32.5645 247.6 32.5645C250.543 32.5645 252.949 33.2988 254.824 34.7728C256.579 36.1582 257.866 37.9238 258.683 40.0749C259.428 42.0436 259.803 44.1322 259.803 46.3457C259.803 48.9551 259.251 52.304 258.157 56.403C257.11 60.2988 255.772 64.6426 254.136 69.429C252.522 74.1634 250.793 79.0697 248.954 84.1426C247.131 89.1738 245.418 94.0645 243.813 98.8145L243.782 98.9134L243.741 99.0124C242.397 102.257 241.079 105.325 239.793 108.21C238.433 111.257 236.912 113.96 235.241 116.325C233.423 118.887 231.261 120.893 228.761 122.34C226.168 123.846 223.063 124.596 219.449 124.596C217.506 124.596 215.48 124.309 213.381 123.736C211.282 123.163 209.475 122.429 207.959 121.544C205.652 120.189 204.501 118.528 204.501 116.559C204.501 115.325 204.777 113.893 205.334 112.262L206.829 107.814C207.506 105.674 208.204 103.689 208.928 101.872C210.142 98.8092 211.871 97.278 214.121 97.278C215.522 97.278 216.954 97.6582 218.407 98.429C219.313 98.903 220.407 99.403 221.694 99.9134C222.709 100.32 223.959 100.523 225.449 100.523C227.47 100.523 229.043 100.221 230.157 99.6113C231.319 98.9811 232.131 98.3353 232.605 97.6738C232.86 97.3145 233.043 97.0176 233.147 96.7884C233.168 96.7363 233.178 96.7103 233.178 96.6999C233.162 96.778 233.152 96.8717 233.152 96.9863C233.152 97.2207 233.241 97.4759 233.423 97.752C233.678 98.1374 234.006 98.3926 234.407 98.5176C234.063 98.4134 233.631 98.3613 233.11 98.3613H218.782C216.142 98.3613 213.944 97.3926 212.183 95.4655C210.782 93.929 209.621 91.9603 208.704 89.5697C207.881 87.4238 207.168 85.1426 206.553 82.7207C205.98 80.4551 205.397 78.3197 204.798 76.304L204.777 76.2311C204.063 73.6113 203.386 71.2832 202.735 69.2467L200.652 62.7051C199.923 60.4082 199.084 57.6686 198.136 54.4863L198.131 54.4759ZM204.121 52.6999C205.058 55.8509 205.886 58.5488 206.6 60.8092L208.683 67.3405C209.366 69.4707 210.069 71.8874 210.803 74.5957L207.793 75.4134L210.782 74.5228C211.407 76.6217 212.017 78.8405 212.61 81.1842C213.162 83.3717 213.803 85.4186 214.537 87.3301C215.173 88.9915 215.928 90.2988 216.803 91.2572C217.324 91.8301 217.98 92.1113 218.782 92.1113H233.11C234.251 92.1113 235.293 92.2572 236.225 92.5384C237.267 92.8561 238.074 93.4499 238.647 94.3249C239.147 95.0853 239.397 95.9759 239.397 96.9863C239.397 98.2624 238.829 99.6947 237.694 101.294C236.668 102.742 235.152 104.012 233.142 105.101C231.095 106.215 228.532 106.773 225.449 106.773C223.157 106.773 221.131 106.419 219.371 105.715C217.881 105.122 216.59 104.533 215.496 103.955C214.949 103.669 214.491 103.523 214.121 103.523C214.444 103.523 214.741 103.45 215.011 103.304C215.136 103.236 215.225 103.169 215.277 103.111C215.131 103.278 214.949 103.632 214.73 104.174C214.069 105.856 213.407 107.731 212.751 109.809L211.246 114.273C210.912 115.252 210.746 116.012 210.746 116.559C210.746 116.189 210.662 115.908 210.496 115.71C210.584 115.814 210.793 115.96 211.121 116.153C212.157 116.762 213.459 117.283 215.027 117.71C216.59 118.137 218.063 118.346 219.449 118.346C221.944 118.346 224.006 117.877 225.631 116.934C227.35 115.939 228.85 114.533 230.147 112.71C231.579 110.684 232.897 108.335 234.09 105.663C235.355 102.83 236.647 99.8197 237.97 96.6217L240.855 97.8197L237.897 96.8197C239.511 92.0228 241.241 87.0853 243.084 82.0124C244.907 76.9759 246.621 72.1113 248.225 67.4082C249.813 62.7572 251.11 58.5488 252.121 54.7832C253.079 51.2155 253.553 48.403 253.553 46.3457C253.553 44.8978 253.319 43.5436 252.845 42.2936C252.438 41.2207 251.808 40.3509 250.959 39.6842C250.22 39.1009 249.1 38.8092 247.6 38.8092C245.735 38.8092 243.824 39.1009 241.866 39.679C239.85 40.278 237.975 41.0749 236.241 42.0645C234.6 43.002 233.313 44.002 232.376 45.0749C231.725 45.8145 231.402 46.4655 231.402 47.0124C231.402 46.7415 231.324 46.5072 231.173 46.2988C231.147 46.2624 231.126 46.2363 231.11 46.2259C231.152 46.2624 231.22 46.304 231.303 46.3457C232.324 46.8978 233.563 47.5592 235.027 48.3353C236.756 49.2467 238.48 50.528 240.188 52.1738C242.011 53.9342 243.522 56.3092 244.715 59.3092C245.892 62.2624 246.475 66.0749 246.475 70.752C246.475 74.0645 246.162 77.2832 245.543 80.3978C244.907 83.5801 244.069 86.2259 243.032 88.3301C241.543 91.3509 239.652 92.8613 237.355 92.8613C235.298 92.8613 233.537 91.5488 232.084 88.9186C231.136 87.2103 230.178 84.9707 229.204 82.1947C228.267 79.5228 227.345 76.5749 226.438 73.3457C225.543 70.153 224.673 66.9082 223.834 63.6061C223.006 60.3457 222.204 57.2728 221.428 54.3874C220.574 51.1426 219.886 48.0749 219.376 45.1895C218.767 41.7728 219.084 38.6113 220.329 35.7051L223.199 36.9342V40.0592H194.048V36.9342L196.105 34.5853C198.319 36.5228 200.001 39.3145 201.147 42.9499C202.126 46.0488 203.116 49.304 204.121 52.7103V52.6999Z" fill="#FFECF2"/>
<path d="M158.486 36.9237C160.153 36.9237 162.012 36.3403 164.07 35.1737C166.122 34.007 168.205 32.5591 170.32 30.8195C172.429 29.0695 174.429 27.3351 176.32 25.6112C178.205 23.8924 179.867 22.4445 181.299 21.2778C182.742 20.1112 183.799 19.5278 184.465 19.5278C185.518 19.5278 186.049 20.1945 186.049 21.5278V36.9237H193.215V41.0903H186.049V74.7362C186.049 76.9028 186.075 79.0695 186.132 81.2362C186.184 83.4028 186.492 85.3508 187.049 87.0695C187.601 88.7935 188.601 90.1268 190.049 91.0695C190.382 91.2935 190.726 91.4028 191.09 91.4028C191.45 91.4028 191.825 91.4601 192.215 91.5695C192.101 92.5695 191.559 93.4445 190.59 94.1945C189.617 94.9445 188.465 95.5122 187.132 95.9028C185.799 96.2883 184.465 96.4862 183.132 96.4862C179.143 96.4862 175.945 95.8195 173.528 94.4862C171.111 93.1528 169.278 91.3612 168.028 89.1112C166.778 86.8612 165.945 84.3508 165.528 81.5695C165.111 78.7935 164.903 75.9966 164.903 73.1737V46.4237C164.903 45.5903 164.861 44.757 164.778 43.9237C164.695 43.0903 164.387 42.4132 163.861 41.882C163.33 41.356 162.403 41.0903 161.07 41.0903H158.486V36.9237Z" fill="#FF637E"/>
<path d="M201.131 53.5905C200.131 50.2051 199.142 46.9655 198.173 43.8822C197.199 40.7988 195.824 38.4811 194.048 36.9238H223.194C222.194 39.2572 221.944 41.8301 222.444 44.6322C222.944 47.4395 223.61 50.4238 224.444 53.5905C225.22 56.4811 226.027 59.5645 226.86 62.8405C227.694 66.1217 228.553 69.3405 229.444 72.5072C230.329 75.6634 231.235 78.5436 232.152 81.153C233.069 83.7676 233.954 85.8509 234.819 87.403C235.678 88.9603 236.527 89.7363 237.36 89.7363C238.36 89.7363 239.319 88.8092 240.235 86.9447C241.152 85.0853 241.902 82.6947 242.485 79.778C243.069 76.8613 243.36 73.8561 243.36 70.7572C243.36 66.4811 242.845 63.0488 241.819 60.4655C240.787 57.8822 239.527 55.8717 238.027 54.4238C236.527 52.9811 235.037 51.8717 233.569 51.0905C232.095 50.3145 230.845 49.6478 229.819 49.0905C228.787 48.5384 228.277 47.8405 228.277 47.0072C228.277 45.6738 228.86 44.3405 230.027 43.0072C231.194 41.6738 232.746 40.4551 234.694 39.3405C236.636 38.2311 238.735 37.3405 240.985 36.6738C243.235 36.0072 245.444 35.6738 247.61 35.6738C249.829 35.6738 251.595 36.1895 252.902 37.2155C254.204 38.2467 255.157 39.5645 255.756 41.1738C256.366 42.7884 256.673 44.5072 256.673 46.3405C256.673 48.6738 256.157 51.7572 255.131 55.5905C254.116 59.4238 252.803 63.7051 251.194 68.4238C249.579 73.1322 247.86 78.0176 246.027 83.0697C244.194 88.127 242.47 93.0436 240.86 97.8197C239.527 101.038 238.22 104.08 236.944 106.945C235.662 109.804 234.246 112.325 232.694 114.507C231.136 116.7 229.303 118.408 227.194 119.632C225.079 120.851 222.496 121.465 219.444 121.465C217.777 121.465 216.027 121.215 214.194 120.715C212.371 120.215 210.824 119.59 209.548 118.84C208.267 118.09 207.631 117.325 207.631 116.549C207.631 115.674 207.85 114.58 208.298 113.278C208.741 111.971 209.241 110.486 209.798 108.82C210.465 106.705 211.142 104.778 211.84 103.028C212.532 101.278 213.298 100.403 214.131 100.403C215.006 100.403 215.944 100.663 216.944 101.195C217.944 101.721 219.136 102.262 220.527 102.82C221.912 103.372 223.553 103.653 225.444 103.653C227.996 103.653 230.069 103.221 231.652 102.361C233.235 101.497 234.402 100.538 235.152 99.4863C235.902 98.429 236.277 97.5957 236.277 96.9863C236.277 96.2051 235.954 95.7207 235.319 95.528C234.678 95.3301 233.944 95.2363 233.11 95.2363H218.777C217.053 95.2363 215.621 94.6113 214.485 93.3613C213.36 92.1113 212.407 90.4759 211.631 88.4447C210.85 86.4186 210.173 84.252 209.59 81.9447C209.006 79.6426 208.407 77.4603 207.798 75.403C207.074 72.752 206.381 70.3822 205.715 68.2988C205.048 66.2155 204.35 64.0384 203.631 61.7572C202.907 59.4811 202.074 56.7572 201.131 53.5905Z" fill="#FF637E"/>
<path d="M103.288 106.943C103.215 106.724 103.121 106.526 102.996 106.359C102.882 106.182 102.746 106.026 102.58 105.901C102.413 105.776 102.226 105.688 102.017 105.63C101.809 105.563 101.58 105.526 101.33 105.526C100.882 105.526 100.481 105.641 100.121 105.859C99.7725 106.083 99.4964 106.417 99.2881 106.859C99.0902 107.292 98.9964 107.818 98.9964 108.443C98.9964 109.083 99.0902 109.625 99.2881 110.068C99.4964 110.5 99.7725 110.828 100.121 111.047C100.481 111.271 100.892 111.38 101.351 111.38C101.778 111.38 102.147 111.307 102.455 111.151C102.772 110.984 103.017 110.755 103.184 110.464C103.351 110.161 103.434 109.797 103.434 109.38L103.767 109.443H101.517V108.255H104.892V109.255C104.892 109.979 104.736 110.604 104.434 111.13C104.127 111.646 103.71 112.042 103.184 112.318C102.653 112.599 102.043 112.734 101.351 112.734C100.585 112.734 99.9131 112.568 99.3298 112.234C98.7464 111.891 98.2881 111.396 97.9548 110.755C97.6318 110.104 97.4756 109.339 97.4756 108.464C97.4756 107.797 97.5693 107.203 97.7673 106.672C97.96 106.13 98.2308 105.682 98.5798 105.318C98.9235 104.943 99.3298 104.661 99.7881 104.464C100.257 104.271 100.767 104.172 101.309 104.172C101.767 104.172 102.194 104.245 102.601 104.38C103.002 104.505 103.356 104.693 103.663 104.943C103.965 105.193 104.215 105.495 104.413 105.839C104.621 106.172 104.757 106.542 104.83 106.943H103.288Z" fill="#FF637E"/>
<path d="M112.154 104.276V112.63H110.654V104.276H112.154Z" fill="#FF637E"/>
<path d="M118.098 112.63V104.276H123.431V105.547H119.598V107.818H123.077V109.088H119.598V112.63H118.098Z" fill="#FF637E"/>
<path d="M128.729 105.547V104.276H135.396V105.547H132.813V112.63H131.313V105.547H128.729Z" fill="#FF637E"/>
<path d="M152.62 106.568C152.589 106.224 152.433 105.953 152.141 105.755C151.86 105.547 151.501 105.443 151.058 105.443C150.735 105.443 150.464 105.495 150.245 105.589C150.021 105.688 149.85 105.818 149.725 105.984C149.6 106.141 149.537 106.318 149.537 106.526C149.537 106.708 149.579 106.859 149.662 106.984C149.745 107.109 149.855 107.224 149.995 107.318C150.131 107.401 150.287 107.479 150.454 107.547C150.62 107.604 150.787 107.651 150.954 107.693L151.745 107.88C152.063 107.953 152.37 108.047 152.662 108.172C152.954 108.297 153.209 108.458 153.433 108.651C153.667 108.849 153.855 109.078 153.995 109.339C154.131 109.604 154.204 109.917 154.204 110.276C154.204 110.776 154.079 111.214 153.829 111.589C153.579 111.953 153.214 112.234 152.745 112.443C152.271 112.651 151.704 112.755 151.037 112.755C150.381 112.755 149.813 112.656 149.329 112.464C148.855 112.255 148.485 111.964 148.225 111.589C147.959 111.203 147.813 110.729 147.787 110.172H149.266C149.292 110.464 149.381 110.708 149.537 110.901C149.704 111.083 149.912 111.224 150.162 111.318C150.412 111.417 150.693 111.464 151.016 111.464C151.35 111.464 151.631 111.417 151.87 111.318C152.12 111.224 152.313 111.083 152.454 110.901C152.605 110.724 152.683 110.516 152.683 110.276C152.683 110.057 152.62 109.875 152.495 109.734C152.37 109.599 152.193 109.479 151.975 109.38C151.751 109.286 151.485 109.193 151.183 109.109L150.225 108.88C149.542 108.703 149.001 108.432 148.6 108.068C148.209 107.708 148.016 107.229 148.016 106.63C148.016 106.146 148.146 105.714 148.412 105.339C148.673 104.964 149.037 104.682 149.495 104.484C149.964 104.276 150.495 104.172 151.079 104.172C151.662 104.172 152.173 104.276 152.62 104.484C153.079 104.682 153.433 104.964 153.683 105.339C153.943 105.703 154.079 106.109 154.079 106.568H152.62Z" fill="#FF637E"/>
<path d="M159.836 112.63V104.276H161.336V107.818H165.211V104.276H166.732V112.63H165.211V109.088H161.336V112.63H159.836Z" fill="#FF637E"/>
<path d="M180.117 108.464C180.117 109.354 179.94 110.125 179.596 110.776C179.263 111.417 178.805 111.901 178.221 112.234C177.648 112.568 176.997 112.734 176.263 112.734C175.539 112.734 174.888 112.568 174.305 112.234C173.732 111.891 173.273 111.396 172.93 110.755C172.596 110.12 172.43 109.354 172.43 108.464C172.43 107.563 172.596 106.792 172.93 106.151C173.273 105.516 173.732 105.026 174.305 104.693C174.888 104.349 175.539 104.172 176.263 104.172C176.997 104.172 177.648 104.349 178.221 104.693C178.805 105.026 179.263 105.516 179.596 106.151C179.94 106.792 180.117 107.563 180.117 108.464ZM178.596 108.464C178.596 107.828 178.492 107.292 178.284 106.859C178.086 106.417 177.815 106.083 177.471 105.859C177.122 105.641 176.721 105.526 176.263 105.526C175.815 105.526 175.419 105.641 175.076 105.859C174.727 106.083 174.451 106.417 174.242 106.859C174.044 107.292 173.951 107.828 173.951 108.464C173.951 109.089 174.044 109.625 174.242 110.068C174.451 110.5 174.727 110.828 175.076 111.047C175.419 111.271 175.815 111.38 176.263 111.38C176.721 111.38 177.122 111.271 177.471 111.047C177.815 110.828 178.086 110.5 178.284 110.068C178.492 109.625 178.596 109.089 178.596 108.464Z" fill="#FF637E"/>
<path d="M185.837 112.63V104.276H188.962C189.597 104.276 190.134 104.401 190.566 104.651C191.009 104.89 191.342 105.213 191.566 105.63C191.785 106.047 191.899 106.521 191.899 107.047C191.899 107.578 191.785 108.047 191.566 108.463C191.342 108.88 191.009 109.213 190.566 109.463C190.118 109.703 189.576 109.818 188.941 109.818H186.858V108.568H188.733C189.108 108.568 189.41 108.505 189.649 108.38C189.884 108.245 190.056 108.062 190.17 107.838C190.295 107.604 190.358 107.338 190.358 107.047C190.358 106.755 190.295 106.5 190.17 106.276C190.056 106.042 189.884 105.859 189.649 105.734C189.41 105.609 189.108 105.547 188.733 105.547H187.337V112.63H185.837Z" fill="#FF637E"/>
<path d="M95.666 120.099H191.322" stroke="#FF637E" stroke-width="2" stroke-linecap="round"/>
</svg>
